<?xml version="1.0" encoding="UTF-8" standalone="no"?>
<!DOCTYPE svg PUBLIC "-//W3C//DTD SVG 1.1//EN"
 "http://www.w3.org/Graphics/SVG/1.1/DTD/svg11.dtd">
<!-- Generated by graphviz version 2.47.0 (20210316.0004)
 -->
<!-- Title: dependencies Pages: 1 -->
<svg width="504pt" height="211pt"
 viewBox="0.00 0.00 504.00 211.00" xmlns="http://www.w3.org/2000/svg" xmlns:xlink="http://www.w3.org/1999/xlink">
<g id="graph0" class="graph" transform="scale(1 1) rotate(0) translate(4 207)">
<title>dependencies</title>
<polygon fill="white" stroke="transparent" points="-4,4 -4,-207 500,-207 500,4 -4,4"/>
<text text-anchor="start" x="227.01" y="-42.4" font-family="Times-12" font-weight="bold" font-size="14.00">Legend</text>
<polygon fill="#ffffb3" stroke="transparent" points="14,-10 14,-30 34,-30 34,-10 14,-10"/>
<text text-anchor="start" x="37.63" y="-15.4" font-family="Times-12" font-size="14.00"> &#160;Declarations</text>
<polygon fill="#8dd3c7" stroke="transparent" points="127,-10 127,-30 147,-30 147,-10 127,-10"/>
<text text-anchor="start" x="150.73" y="-15.4" font-family="Times-12" font-size="14.00"> &#160;Module</text>
<polygon fill="#80b1d3" stroke="transparent" points="213,-10 213,-30 233,-30 233,-10 213,-10"/>
<text text-anchor="start" x="236.78" y="-15.4" font-family="Times-12" font-size="14.00"> &#160;Bootstrap</text>
<polygon fill="#fdb462" stroke="transparent" points="310,-10 310,-30 330,-30 330,-10 310,-10"/>
<text text-anchor="start" x="333.67" y="-15.4" font-family="Times-12" font-size="14.00"> &#160;Providers</text>
<polygon fill="#fb8072" stroke="transparent" points="406,-10 406,-30 426,-30 426,-10 406,-10"/>
<text text-anchor="start" x="429.73" y="-15.4" font-family="Times-12" font-size="14.00"> &#160;Exports</text>
<g id="clust1" class="cluster">
<title>cluster_UserModule</title>
<polygon fill="none" stroke="black" stroke-dasharray="1,5" points="8,-70 8,-195 488,-195 488,-70 8,-70"/>
</g>
<g id="clust3" class="cluster">
<title>cluster_UserModule_imports</title>
<polygon fill="none" stroke="black" points="376,-78 376,-130 480,-130 480,-78 376,-78"/>
</g>
<g id="clust6" class="cluster">
<title>cluster_UserModule_providers</title>
<polygon fill="none" stroke="black" points="16,-78 16,-130 368,-130 368,-78 16,-78"/>
</g>
<!-- AuthModule -->
<g id="node1" class="node">
<title>AuthModule</title>
<polygon fill="#8dd3c7" stroke="black" points="471.55,-122 468.55,-126 447.55,-126 444.55,-122 384.45,-122 384.45,-86 471.55,-86 471.55,-122"/>
<text text-anchor="middle" x="428" y="-99.8" font-family="Times,serif" font-size="14.00">AuthModule</text>
</g>
<!-- UserModule -->
<g id="node2" class="node">
<title>UserModule</title>
<polygon fill="#8dd3c7" stroke="black" points="301.98,-187 298.98,-191 277.98,-191 274.98,-187 216.02,-187 216.02,-151 301.98,-151 301.98,-187"/>
<text text-anchor="middle" x="259" y="-164.8" font-family="Times,serif" font-size="14.00">UserModule</text>
</g>
<!-- AuthModule&#45;&gt;UserModule -->
<g id="edge1" class="edge">
<title>AuthModule&#45;&gt;UserModule</title>
<path fill="none" stroke="black" d="M428,-122.11C428,-141.34 428,-169 428,-169 428,-169 312.08,-169 312.08,-169"/>
<polygon fill="black" stroke="black" points="312.08,-165.5 302.08,-169 312.08,-172.5 312.08,-165.5"/>
</g>
<!-- UserRepositoryService -->
<g id="node3" class="node">
<title>UserRepositoryService</title>
<ellipse fill="#fdb462" stroke="black" cx="259" cy="-104" rx="100.7" ry="18"/>
<text text-anchor="middle" x="259" y="-99.8" font-family="Times,serif" font-size="14.00">UserRepositoryService</text>
</g>
<!-- UserRepositoryService&#45;&gt;UserModule -->
<g id="edge2" class="edge">
<title>UserRepositoryService&#45;&gt;UserModule</title>
<path fill="none" stroke="black" d="M259,-122.11C259,-122.11 259,-140.99 259,-140.99"/>
<polygon fill="black" stroke="black" points="255.5,-140.99 259,-150.99 262.5,-140.99 255.5,-140.99"/>
</g>
<!-- UserService -->
<g id="node4" class="node">
<title>UserService</title>
<ellipse fill="#fdb462" stroke="black" cx="82" cy="-104" rx="58.44" ry="18"/>
<text text-anchor="middle" x="82" y="-99.8" font-family="Times,serif" font-size="14.00">UserService</text>
</g>
<!-- UserService&#45;&gt;UserModule -->
<g id="edge3" class="edge">
<title>UserService&#45;&gt;UserModule</title>
<path fill="none" stroke="black" d="M82,-122.11C82,-141.34 82,-169 82,-169 82,-169 205.7,-169 205.7,-169"/>
<polygon fill="black" stroke="black" points="205.7,-172.5 215.7,-169 205.7,-165.5 205.7,-172.5"/>
</g>
</g>
</svg>
