<?xml version="1.0" encoding="UTF-8" standalone="no"?>
<!DOCTYPE svg PUBLIC "-//W3C//DTD SVG 1.1//EN"
 "http://www.w3.org/Graphics/SVG/1.1/DTD/svg11.dtd">
<!-- Generated by graphviz version 2.47.0 (20210316.0004)
 -->
<!-- Title: dependencies Pages: 1 -->
<svg width="1556pt" height="355pt"
 viewBox="0.00 0.00 1556.00 355.00" xmlns="http://www.w3.org/2000/svg" xmlns:xlink="http://www.w3.org/1999/xlink">
<g id="graph0" class="graph" transform="scale(1 1) rotate(0) translate(4 351)">
<title>dependencies</title>
<polygon fill="white" stroke="transparent" points="-4,4 -4,-351 1552,-351 1552,4 -4,4"/>
<text text-anchor="start" x="753.01" y="-42.4" font-family="Times-12" font-weight="bold" font-size="14.00">Legend</text>
<polygon fill="#ffffb3" stroke="transparent" points="540,-10 540,-30 560,-30 560,-10 540,-10"/>
<text text-anchor="start" x="563.63" y="-15.4" font-family="Times-12" font-size="14.00"> &#160;Declarations</text>
<polygon fill="#8dd3c7" stroke="transparent" points="653,-10 653,-30 673,-30 673,-10 653,-10"/>
<text text-anchor="start" x="676.73" y="-15.4" font-family="Times-12" font-size="14.00"> &#160;Module</text>
<polygon fill="#80b1d3" stroke="transparent" points="739,-10 739,-30 759,-30 759,-10 739,-10"/>
<text text-anchor="start" x="762.78" y="-15.4" font-family="Times-12" font-size="14.00"> &#160;Bootstrap</text>
<polygon fill="#fdb462" stroke="transparent" points="836,-10 836,-30 856,-30 856,-10 836,-10"/>
<text text-anchor="start" x="859.67" y="-15.4" font-family="Times-12" font-size="14.00"> &#160;Providers</text>
<polygon fill="#fb8072" stroke="transparent" points="932,-10 932,-30 952,-30 952,-10 932,-10"/>
<text text-anchor="start" x="955.73" y="-15.4" font-family="Times-12" font-size="14.00"> &#160;Exports</text>
<g id="clust1" class="cluster">
<title>cluster_AccountModule</title>
<polygon fill="none" stroke="black" stroke-dasharray="1,5" points="304,-146 304,-274 482,-274 482,-146 304,-146"/>
</g>
<g id="clust6" class="cluster">
<title>cluster_AccountModule_providers</title>
<polygon fill="none" stroke="black" points="312,-154 312,-206 474,-206 474,-154 312,-154"/>
</g>
<g id="clust7" class="cluster">
<title>cluster_AppModule</title>
<polygon fill="none" stroke="black" stroke-dasharray="1,5" points="490,-146 490,-339 1119,-339 1119,-146 490,-146"/>
</g>
<g id="clust9" class="cluster">
<title>cluster_AppModule_imports</title>
<polygon fill="none" stroke="black" points="636,-154 636,-274 1111,-274 1111,-154 636,-154"/>
</g>
<g id="clust12" class="cluster">
<title>cluster_AppModule_providers</title>
<polygon fill="none" stroke="black" points="498,-222 498,-274 628,-274 628,-222 498,-222"/>
</g>
<g id="clust13" class="cluster">
<title>cluster_AuthModule</title>
<polygon fill="none" stroke="black" stroke-dasharray="1,5" points="8,-70 8,-138 988,-138 988,-70 8,-70"/>
</g>
<g id="clust16" class="cluster">
<title>cluster_AuthModule_exports</title>
<polygon fill="none" stroke="black" points="874,-78 874,-130 980,-130 980,-78 874,-78"/>
</g>
<g id="clust18" class="cluster">
<title>cluster_AuthModule_providers</title>
<polygon fill="none" stroke="black" points="16,-78 16,-130 866,-130 866,-78 16,-78"/>
</g>
<g id="clust19" class="cluster">
<title>cluster_CategoryModule</title>
<polygon fill="none" stroke="black" stroke-dasharray="1,5" points="996,-70 996,-138 1178,-138 1178,-70 996,-70"/>
</g>
<g id="clust24" class="cluster">
<title>cluster_CategoryModule_providers</title>
<polygon fill="none" stroke="black" points="1004,-78 1004,-130 1170,-130 1170,-78 1004,-78"/>
</g>
<g id="clust25" class="cluster">
<title>cluster_TagModule</title>
<polygon fill="none" stroke="black" stroke-dasharray="1,5" points="1186,-70 1186,-138 1328,-138 1328,-70 1186,-70"/>
</g>
<g id="clust30" class="cluster">
<title>cluster_TagModule_providers</title>
<polygon fill="none" stroke="black" points="1194,-78 1194,-130 1320,-130 1320,-78 1194,-78"/>
</g>
<g id="clust31" class="cluster">
<title>cluster_TransactionModule</title>
<polygon fill="none" stroke="black" stroke-dasharray="1,5" points="1336,-70 1336,-138 1540,-138 1540,-70 1336,-70"/>
</g>
<g id="clust36" class="cluster">
<title>cluster_TransactionModule_providers</title>
<polygon fill="none" stroke="black" points="1344,-78 1344,-130 1532,-130 1532,-78 1344,-78"/>
</g>
<g id="clust37" class="cluster">
<title>cluster_UserModule</title>
<polygon fill="none" stroke="black" stroke-dasharray="1,5" points="1127,-146 1127,-214 1495,-214 1495,-146 1127,-146"/>
</g>
<g id="clust42" class="cluster">
<title>cluster_UserModule_providers</title>
<polygon fill="none" stroke="black" points="1135,-154 1135,-206 1487,-206 1487,-154 1135,-154"/>
</g>
<!-- AccountService -->
<g id="node1" class="node">
<title>AccountService</title>
<ellipse fill="#fdb462" stroke="black" cx="393" cy="-180" rx="72.91" ry="18"/>
<text text-anchor="middle" x="393" y="-175.8" font-family="Times,serif" font-size="14.00">AccountService</text>
</g>
<!-- AccountModule -->
<g id="node2" class="node">
<title>AccountModule</title>
<polygon fill="#8dd3c7" stroke="black" points="460.48,-266 457.48,-270 436.48,-270 433.48,-266 353.52,-266 353.52,-230 460.48,-230 460.48,-266"/>
<text text-anchor="middle" x="407" y="-243.8" font-family="Times,serif" font-size="14.00">AccountModule</text>
</g>
<!-- AccountService&#45;&gt;AccountModule -->
<g id="edge1" class="edge">
<title>AccountService&#45;&gt;AccountModule</title>
<path fill="none" stroke="black" d="M407,-197.87C407,-197.87 407,-219.54 407,-219.54"/>
<polygon fill="black" stroke="black" points="403.5,-219.54 407,-229.54 410.5,-219.54 403.5,-219.54"/>
</g>
<!-- AppModule -->
<g id="node8" class="node">
<title>AppModule</title>
<polygon fill="#8dd3c7" stroke="black" points="846.66,-331 843.66,-335 822.66,-335 819.66,-331 763.34,-331 763.34,-295 846.66,-295 846.66,-331"/>
<text text-anchor="middle" x="805" y="-308.8" font-family="Times,serif" font-size="14.00">AppModule</text>
</g>
<!-- AccountModule&#45;&gt;AppModule -->
<g id="edge2" class="edge">
<title>AccountModule&#45;&gt;AppModule</title>
<path fill="none" stroke="black" d="M407,-266.28C407,-287.32 407,-319 407,-319 407,-319 753.16,-319 753.16,-319"/>
<polygon fill="black" stroke="black" points="753.16,-322.5 763.16,-319 753.16,-315.5 753.16,-322.5"/>
</g>
<!-- AuthModule -->
<g id="node3" class="node">
<title>AuthModule</title>
<polygon fill="#8dd3c7" stroke="black" points="731.55,-198 728.55,-202 707.55,-202 704.55,-198 644.45,-198 644.45,-162 731.55,-162 731.55,-198"/>
<text text-anchor="middle" x="688" y="-175.8" font-family="Times,serif" font-size="14.00">AuthModule</text>
</g>
<!-- UserModule -->
<g id="node7" class="node">
<title>UserModule</title>
<polygon fill="#8dd3c7" stroke="black" points="1075.98,-266 1072.98,-270 1051.98,-270 1048.98,-266 990.02,-266 990.02,-230 1075.98,-230 1075.98,-266"/>
<text text-anchor="middle" x="1033" y="-243.8" font-family="Times,serif" font-size="14.00">UserModule</text>
</g>
<!-- AuthModule&#45;&gt;UserModule -->
<g id="edge19" class="edge">
<title>AuthModule&#45;&gt;UserModule</title>
<path fill="none" stroke="black" d="M702.59,-198.02C702.59,-215.37 702.59,-239 702.59,-239 702.59,-239 979.8,-239 979.8,-239"/>
<polygon fill="black" stroke="black" points="979.8,-242.5 989.8,-239 979.8,-235.5 979.8,-242.5"/>
</g>
<!-- AuthModule&#45;&gt;AppModule -->
<g id="edge3" class="edge">
<title>AuthModule&#45;&gt;AppModule</title>
<path fill="none" stroke="black" d="M673.41,-198.2C673.41,-233.31 673.41,-307 673.41,-307 673.41,-307 753,-307 753,-307"/>
<polygon fill="black" stroke="black" points="753,-310.5 763,-307 753,-303.5 753,-310.5"/>
</g>
<!-- AuthService  -->
<g id="node10" class="node">
<title>AuthService </title>
<polygon fill="#fb8072" stroke="black" points="971.98,-122 882.02,-122 882.02,-86 971.98,-86 971.98,-122"/>
<text text-anchor="middle" x="927" y="-99.8" font-family="Times,serif" font-size="14.00">AuthService </text>
</g>
<!-- AuthModule&#45;&gt;AuthService  -->
<g id="edge9" class="edge">
<title>AuthModule&#45;&gt;AuthService </title>
<path fill="none" stroke="black" stroke-dasharray="5,2" d="M727.86,-161.89C727.86,-152.1 727.86,-142 727.86,-142 727.86,-142 908.06,-142 908.06,-142 908.06,-142 908.06,-132.11 908.06,-132.11"/>
<polygon fill="black" stroke="black" points="911.56,-132.11 908.06,-122.11 904.56,-132.11 911.56,-132.11"/>
</g>
<!-- CategoryModule -->
<g id="node4" class="node">
<title>CategoryModule</title>
<polygon fill="#8dd3c7" stroke="black" points="860.37,-198 857.37,-202 836.37,-202 833.37,-198 749.63,-198 749.63,-162 860.37,-162 860.37,-198"/>
<text text-anchor="middle" x="805" y="-175.8" font-family="Times,serif" font-size="14.00">CategoryModule</text>
</g>
<!-- CategoryModule&#45;&gt;AppModule -->
<g id="edge4" class="edge">
<title>CategoryModule&#45;&gt;AppModule</title>
<path fill="none" stroke="black" d="M805,-198.21C805,-198.21 805,-284.58 805,-284.58"/>
<polygon fill="black" stroke="black" points="801.5,-284.58 805,-294.58 808.5,-284.58 801.5,-284.58"/>
</g>
<!-- TagModule -->
<g id="node5" class="node">
<title>TagModule</title>
<polygon fill="#8dd3c7" stroke="black" points="959.82,-198 956.82,-202 935.82,-202 932.82,-198 878.18,-198 878.18,-162 959.82,-162 959.82,-198"/>
<text text-anchor="middle" x="919" y="-175.8" font-family="Times,serif" font-size="14.00">TagModule</text>
</g>
<!-- TagModule&#45;&gt;AppModule -->
<g id="edge5" class="edge">
<title>TagModule&#45;&gt;AppModule</title>
<path fill="none" stroke="black" d="M919,-198.2C919,-233.31 919,-307 919,-307 919,-307 856.8,-307 856.8,-307"/>
<polygon fill="black" stroke="black" points="856.8,-303.5 846.8,-307 856.8,-310.5 856.8,-303.5"/>
</g>
<!-- TransactionModule -->
<g id="node6" class="node">
<title>TransactionModule</title>
<polygon fill="#8dd3c7" stroke="black" points="1102.63,-198 1099.63,-202 1078.63,-202 1075.63,-198 977.37,-198 977.37,-162 1102.63,-162 1102.63,-198"/>
<text text-anchor="middle" x="1040" y="-175.8" font-family="Times,serif" font-size="14.00">TransactionModule</text>
</g>
<!-- TransactionModule&#45;&gt;AppModule -->
<g id="edge6" class="edge">
<title>TransactionModule&#45;&gt;AppModule</title>
<path fill="none" stroke="black" d="M983.6,-198.17C983.6,-235.85 983.6,-319 983.6,-319 983.6,-319 856.87,-319 856.87,-319"/>
<polygon fill="black" stroke="black" points="856.87,-315.5 846.87,-319 856.87,-322.5 856.87,-315.5"/>
</g>
<!-- UserModule&#45;&gt;AppModule -->
<g id="edge7" class="edge">
<title>UserModule&#45;&gt;AppModule</title>
<path fill="none" stroke="black" d="M989.84,-257C929.15,-257 825.91,-257 825.91,-257 825.91,-257 825.91,-284.97 825.91,-284.97"/>
<polygon fill="black" stroke="black" points="822.41,-284.97 825.91,-294.97 829.41,-284.97 822.41,-284.97"/>
</g>
<!-- AppService -->
<g id="node9" class="node">
<title>AppService</title>
<ellipse fill="#fdb462" stroke="black" cx="563" cy="-248" rx="56.74" ry="18"/>
<text text-anchor="middle" x="563" y="-243.8" font-family="Times,serif" font-size="14.00">AppService</text>
</g>
<!-- AppService&#45;&gt;AppModule -->
<g id="edge8" class="edge">
<title>AppService&#45;&gt;AppModule</title>
<path fill="none" stroke="black" d="M619.65,-248C685.15,-248 784.09,-248 784.09,-248 784.09,-248 784.09,-284.89 784.09,-284.89"/>
<polygon fill="black" stroke="black" points="780.59,-284.89 784.09,-294.89 787.59,-284.89 780.59,-284.89"/>
</g>
<!-- AesStrategy -->
<g id="node11" class="node">
<title>AesStrategy</title>
<ellipse fill="#fdb462" stroke="black" cx="510" cy="-104" rx="58.46" ry="18"/>
<text text-anchor="middle" x="510" y="-99.8" font-family="Times,serif" font-size="14.00">AesStrategy</text>
</g>
<!-- AesStrategy&#45;&gt;AuthModule -->
<g id="edge10" class="edge">
<title>AesStrategy&#45;&gt;AuthModule</title>
<path fill="none" stroke="black" d="M537.31,-120.12C537.31,-142.43 537.31,-180 537.31,-180 537.31,-180 634.41,-180 634.41,-180"/>
<polygon fill="black" stroke="black" points="634.41,-183.5 644.41,-180 634.41,-176.5 634.41,-183.5"/>
</g>
<!-- AuthService -->
<g id="node12" class="node">
<title>AuthService</title>
<ellipse fill="#fdb462" stroke="black" cx="374" cy="-104" rx="59.11" ry="18"/>
<text text-anchor="middle" x="374" y="-99.8" font-family="Times,serif" font-size="14.00">AuthService</text>
</g>
<!-- AuthService&#45;&gt;AuthModule -->
<g id="edge11" class="edge">
<title>AuthService&#45;&gt;AuthModule</title>
<path fill="none" stroke="black" d="M376.8,-122.12C376.8,-124.97 376.8,-127 376.8,-127 376.8,-127 679.03,-127 679.03,-127 679.03,-127 679.03,-151.76 679.03,-151.76"/>
<polygon fill="black" stroke="black" points="675.53,-151.76 679.03,-161.76 682.53,-151.76 675.53,-151.76"/>
</g>
<!-- JwtATStrategy -->
<g id="node13" class="node">
<title>JwtATStrategy</title>
<ellipse fill="#fdb462" stroke="black" cx="227" cy="-104" rx="69.5" ry="18"/>
<text text-anchor="middle" x="227" y="-99.8" font-family="Times,serif" font-size="14.00">JwtATStrategy</text>
</g>
<!-- JwtATStrategy&#45;&gt;AuthModule -->
<g id="edge12" class="edge">
<title>JwtATStrategy&#45;&gt;AuthModule</title>
<path fill="none" stroke="black" d="M227,-122.21C227,-127.55 227,-132 227,-132 227,-132 667.43,-132 667.43,-132 667.43,-132 667.43,-151.85 667.43,-151.85"/>
<polygon fill="black" stroke="black" points="663.93,-151.85 667.43,-161.85 670.93,-151.85 663.93,-151.85"/>
</g>
<!-- JwtProvider -->
<g id="node14" class="node">
<title>JwtProvider</title>
<ellipse fill="#fdb462" stroke="black" cx="82" cy="-104" rx="57.9" ry="18"/>
<text text-anchor="middle" x="82" y="-99.8" font-family="Times,serif" font-size="14.00">JwtProvider</text>
</g>
<!-- JwtProvider&#45;&gt;AuthModule -->
<g id="edge13" class="edge">
<title>JwtProvider&#45;&gt;AuthModule</title>
<path fill="none" stroke="black" d="M82,-122.04C82,-129.75 82,-137 82,-137 82,-137 655.83,-137 655.83,-137 655.83,-137 655.83,-151.51 655.83,-151.51"/>
<polygon fill="black" stroke="black" points="652.33,-151.51 655.83,-161.51 659.33,-151.51 652.33,-151.51"/>
</g>
<!-- JwtRTStrategy -->
<g id="node15" class="node">
<title>JwtRTStrategy</title>
<ellipse fill="#fdb462" stroke="black" cx="789" cy="-104" rx="68.94" ry="18"/>
<text text-anchor="middle" x="789" y="-99.8" font-family="Times,serif" font-size="14.00">JwtRTStrategy</text>
</g>
<!-- JwtRTStrategy&#45;&gt;AuthModule -->
<g id="edge14" class="edge">
<title>JwtRTStrategy&#45;&gt;AuthModule</title>
<path fill="none" stroke="black" d="M723.95,-110.22C723.95,-110.22 723.95,-151.76 723.95,-151.76"/>
<polygon fill="black" stroke="black" points="720.45,-151.76 723.95,-161.76 727.45,-151.76 720.45,-151.76"/>
</g>
<!-- SaltStrategy -->
<g id="node16" class="node">
<title>SaltStrategy</title>
<ellipse fill="#fdb462" stroke="black" cx="644" cy="-104" rx="58.48" ry="18"/>
<text text-anchor="middle" x="644" y="-99.8" font-family="Times,serif" font-size="14.00">SaltStrategy</text>
</g>
<!-- SaltStrategy&#45;&gt;AuthModule -->
<g id="edge15" class="edge">
<title>SaltStrategy&#45;&gt;AuthModule</title>
<path fill="none" stroke="black" d="M690.64,-114.89C690.64,-114.89 690.64,-151.79 690.64,-151.79"/>
<polygon fill="black" stroke="black" points="687.14,-151.79 690.64,-161.79 694.14,-151.79 687.14,-151.79"/>
</g>
<!-- CategoryService -->
<g id="node17" class="node">
<title>CategoryService</title>
<ellipse fill="#fdb462" stroke="black" cx="1087" cy="-104" rx="75.28" ry="18"/>
<text text-anchor="middle" x="1087" y="-99.8" font-family="Times,serif" font-size="14.00">CategoryService</text>
</g>
<!-- CategoryService&#45;&gt;CategoryModule -->
<g id="edge16" class="edge">
<title>CategoryService&#45;&gt;CategoryModule</title>
<path fill="none" stroke="black" d="M1042.01,-118.56C1042.01,-131.03 1042.01,-147 1042.01,-147 1042.01,-147 803.77,-147 803.77,-147 803.77,-147 803.77,-151.96 803.77,-151.96"/>
<polygon fill="black" stroke="black" points="800.27,-151.96 803.77,-161.96 807.27,-151.96 800.27,-151.96"/>
</g>
<!-- TagService -->
<g id="node18" class="node">
<title>TagService</title>
<ellipse fill="#fdb462" stroke="black" cx="1257" cy="-104" rx="55.01" ry="18"/>
<text text-anchor="middle" x="1257" y="-99.8" font-family="Times,serif" font-size="14.00">TagService</text>
</g>
<!-- TagService&#45;&gt;TagModule -->
<g id="edge17" class="edge">
<title>TagService&#45;&gt;TagModule</title>
<path fill="none" stroke="black" d="M1230.61,-119.98C1230.61,-133.95 1230.61,-152 1230.61,-152 1230.61,-152 933.86,-152 933.86,-152 933.86,-152 933.86,-152.98 933.86,-152.98"/>
<polygon fill="black" stroke="black" points="930.36,-151.79 933.86,-161.79 937.36,-151.79 930.36,-151.79"/>
</g>
<!-- TransactionService -->
<g id="node19" class="node">
<title>TransactionService</title>
<ellipse fill="#fdb462" stroke="black" cx="1438" cy="-104" rx="85.65" ry="18"/>
<text text-anchor="middle" x="1438" y="-99.8" font-family="Times,serif" font-size="14.00">TransactionService</text>
</g>
<!-- TransactionService&#45;&gt;TransactionModule -->
<g id="edge18" class="edge">
<title>TransactionService&#45;&gt;TransactionModule</title>
<path fill="none" stroke="black" d="M1415.51,-121.65C1415.51,-137.07 1415.51,-157 1415.51,-157 1415.51,-157 1072.41,-157 1072.41,-157 1072.41,-157 1072.41,-157.49 1072.41,-157.49"/>
<polygon fill="black" stroke="black" points="1068.91,-151.88 1072.41,-161.88 1075.91,-151.88 1068.91,-151.88"/>
</g>
<!-- UserRepositoryService -->
<g id="node20" class="node">
<title>UserRepositoryService</title>
<ellipse fill="#fdb462" stroke="black" cx="1378" cy="-180" rx="100.7" ry="18"/>
<text text-anchor="middle" x="1378" y="-175.8" font-family="Times,serif" font-size="14.00">UserRepositoryService</text>
</g>
<!-- UserRepositoryService&#45;&gt;UserModule -->
<g id="edge20" class="edge">
<title>UserRepositoryService&#45;&gt;UserModule</title>
<path fill="none" stroke="black" d="M1378,-198.29C1378,-220.21 1378,-254 1378,-254 1378,-254 1086,-254 1086,-254"/>
<polygon fill="black" stroke="black" points="1086,-250.5 1076,-254 1086,-257.5 1086,-250.5"/>
</g>
<!-- UserService -->
<g id="node21" class="node">
<title>UserService</title>
<ellipse fill="#fdb462" stroke="black" cx="1201" cy="-180" rx="58.44" ry="18"/>
<text text-anchor="middle" x="1201" y="-175.8" font-family="Times,serif" font-size="14.00">UserService</text>
</g>
<!-- UserService&#45;&gt;UserModule -->
<g id="edge21" class="edge">
<title>UserService&#45;&gt;UserModule</title>
<path fill="none" stroke="black" d="M1201,-198.27C1201,-216.56 1201,-242 1201,-242 1201,-242 1086.26,-242 1086.26,-242"/>
<polygon fill="black" stroke="black" points="1086.26,-238.5 1076.26,-242 1086.26,-245.5 1086.26,-238.5"/>
</g>
</g>
</svg>
