<?xml version="1.0" encoding="UTF-8" standalone="no"?>
<!DOCTYPE svg PUBLIC "-//W3C//DTD SVG 1.1//EN"
 "http://www.w3.org/Graphics/SVG/1.1/DTD/svg11.dtd">
<!-- Generated by graphviz version 2.47.0 (20210316.0004)
 -->
<!-- Title: dependencies Pages: 1 -->
<svg width="881pt" height="211pt"
 viewBox="0.00 0.00 881.00 211.00" xmlns="http://www.w3.org/2000/svg" xmlns:xlink="http://www.w3.org/1999/xlink">
<g id="graph0" class="graph" transform="scale(1 1) rotate(0) translate(4 207)">
<title>dependencies</title>
<polygon fill="white" stroke="transparent" points="-4,4 -4,-207 877,-207 877,4 -4,4"/>
<text text-anchor="start" x="415.51" y="-42.4" font-family="Times-12" font-weight="bold" font-size="14.00">Legend</text>
<polygon fill="#ffffb3" stroke="transparent" points="202.5,-10 202.5,-30 222.5,-30 222.5,-10 202.5,-10"/>
<text text-anchor="start" x="226.13" y="-15.4" font-family="Times-12" font-size="14.00"> &#160;Declarations</text>
<polygon fill="#8dd3c7" stroke="transparent" points="315.5,-10 315.5,-30 335.5,-30 335.5,-10 315.5,-10"/>
<text text-anchor="start" x="339.23" y="-15.4" font-family="Times-12" font-size="14.00"> &#160;Module</text>
<polygon fill="#80b1d3" stroke="transparent" points="401.5,-10 401.5,-30 421.5,-30 421.5,-10 401.5,-10"/>
<text text-anchor="start" x="425.28" y="-15.4" font-family="Times-12" font-size="14.00"> &#160;Bootstrap</text>
<polygon fill="#fdb462" stroke="transparent" points="498.5,-10 498.5,-30 518.5,-30 518.5,-10 498.5,-10"/>
<text text-anchor="start" x="522.17" y="-15.4" font-family="Times-12" font-size="14.00"> &#160;Providers</text>
<polygon fill="#fb8072" stroke="transparent" points="594.5,-10 594.5,-30 614.5,-30 614.5,-10 594.5,-10"/>
<text text-anchor="start" x="618.23" y="-15.4" font-family="Times-12" font-size="14.00"> &#160;Exports</text>
<g id="clust1" class="cluster">
<title>cluster_AppModule</title>
<polygon fill="none" stroke="black" stroke-dasharray="1,5" points="8,-70 8,-195 865,-195 865,-70 8,-70"/>
</g>
<g id="clust6" class="cluster">
<title>cluster_AppModule_providers</title>
<polygon fill="none" stroke="black" points="727,-78 727,-130 857,-130 857,-78 727,-78"/>
</g>
<g id="clust3" class="cluster">
<title>cluster_AppModule_imports</title>
<polygon fill="none" stroke="black" points="16,-78 16,-130 719,-130 719,-78 16,-78"/>
</g>
<!-- AccountModule -->
<g id="node1" class="node">
<title>AccountModule</title>
<polygon fill="#8dd3c7" stroke="black" points="711.48,-122 708.48,-126 687.48,-126 684.48,-122 604.52,-122 604.52,-86 711.48,-86 711.48,-122"/>
<text text-anchor="middle" x="658" y="-99.8" font-family="Times,serif" font-size="14.00">AccountModule</text>
</g>
<!-- AppModule -->
<g id="node7" class="node">
<title>AppModule</title>
<polygon fill="#8dd3c7" stroke="black" points="467.66,-187 464.66,-191 443.66,-191 440.66,-187 384.34,-187 384.34,-151 467.66,-151 467.66,-187"/>
<text text-anchor="middle" x="426" y="-164.8" font-family="Times,serif" font-size="14.00">AppModule</text>
</g>
<!-- AccountModule&#45;&gt;AppModule -->
<g id="edge1" class="edge">
<title>AccountModule&#45;&gt;AppModule</title>
<path fill="none" stroke="black" d="M658,-122.11C658,-141.34 658,-169 658,-169 658,-169 477.74,-169 477.74,-169"/>
<polygon fill="black" stroke="black" points="477.74,-165.5 467.74,-169 477.74,-172.5 477.74,-165.5"/>
</g>
<!-- AuthModule -->
<g id="node2" class="node">
<title>AuthModule</title>
<polygon fill="#8dd3c7" stroke="black" points="586.55,-122 583.55,-126 562.55,-126 559.55,-122 499.45,-122 499.45,-86 586.55,-86 586.55,-122"/>
<text text-anchor="middle" x="543" y="-99.8" font-family="Times,serif" font-size="14.00">AuthModule</text>
</g>
<!-- AuthModule&#45;&gt;AppModule -->
<g id="edge2" class="edge">
<title>AuthModule&#45;&gt;AppModule</title>
<path fill="none" stroke="black" d="M543,-122.03C543,-138.4 543,-160 543,-160 543,-160 477.91,-160 477.91,-160"/>
<polygon fill="black" stroke="black" points="477.91,-156.5 467.91,-160 477.91,-163.5 477.91,-156.5"/>
</g>
<!-- CategoryModule -->
<g id="node3" class="node">
<title>CategoryModule</title>
<polygon fill="#8dd3c7" stroke="black" points="481.37,-122 478.37,-126 457.37,-126 454.37,-122 370.63,-122 370.63,-86 481.37,-86 481.37,-122"/>
<text text-anchor="middle" x="426" y="-99.8" font-family="Times,serif" font-size="14.00">CategoryModule</text>
</g>
<!-- CategoryModule&#45;&gt;AppModule -->
<g id="edge3" class="edge">
<title>CategoryModule&#45;&gt;AppModule</title>
<path fill="none" stroke="black" d="M426,-122.11C426,-122.11 426,-140.99 426,-140.99"/>
<polygon fill="black" stroke="black" points="422.5,-140.99 426,-150.99 429.5,-140.99 422.5,-140.99"/>
</g>
<!-- TagModule -->
<g id="node4" class="node">
<title>TagModule</title>
<polygon fill="#8dd3c7" stroke="black" points="352.82,-122 349.82,-126 328.82,-126 325.82,-122 271.18,-122 271.18,-86 352.82,-86 352.82,-122"/>
<text text-anchor="middle" x="312" y="-99.8" font-family="Times,serif" font-size="14.00">TagModule</text>
</g>
<!-- TagModule&#45;&gt;AppModule -->
<g id="edge4" class="edge">
<title>TagModule&#45;&gt;AppModule</title>
<path fill="none" stroke="black" d="M312,-122.03C312,-138.4 312,-160 312,-160 312,-160 374.2,-160 374.2,-160"/>
<polygon fill="black" stroke="black" points="374.2,-163.5 384.2,-160 374.2,-156.5 374.2,-163.5"/>
</g>
<!-- TransactionModule -->
<g id="node5" class="node">
<title>TransactionModule</title>
<polygon fill="#8dd3c7" stroke="black" points="253.63,-122 250.63,-126 229.63,-126 226.63,-122 128.37,-122 128.37,-86 253.63,-86 253.63,-122"/>
<text text-anchor="middle" x="191" y="-99.8" font-family="Times,serif" font-size="14.00">TransactionModule</text>
</g>
<!-- TransactionModule&#45;&gt;AppModule -->
<g id="edge5" class="edge">
<title>TransactionModule&#45;&gt;AppModule</title>
<path fill="none" stroke="black" d="M191,-122.11C191,-141.34 191,-169 191,-169 191,-169 374.26,-169 374.26,-169"/>
<polygon fill="black" stroke="black" points="374.26,-172.5 384.26,-169 374.26,-165.5 374.26,-172.5"/>
</g>
<!-- UserModule -->
<g id="node6" class="node">
<title>UserModule</title>
<polygon fill="#8dd3c7" stroke="black" points="109.98,-122 106.98,-126 85.98,-126 82.98,-122 24.02,-122 24.02,-86 109.98,-86 109.98,-122"/>
<text text-anchor="middle" x="67" y="-99.8" font-family="Times,serif" font-size="14.00">UserModule</text>
</g>
<!-- UserModule&#45;&gt;AppModule -->
<g id="edge6" class="edge">
<title>UserModule&#45;&gt;AppModule</title>
<path fill="none" stroke="black" d="M67,-122.29C67,-144.21 67,-178 67,-178 67,-178 374.12,-178 374.12,-178"/>
<polygon fill="black" stroke="black" points="374.12,-181.5 384.12,-178 374.12,-174.5 374.12,-181.5"/>
</g>
<!-- AppService -->
<g id="node8" class="node">
<title>AppService</title>
<ellipse fill="#fdb462" stroke="black" cx="792" cy="-104" rx="56.74" ry="18"/>
<text text-anchor="middle" x="792" y="-99.8" font-family="Times,serif" font-size="14.00">AppService</text>
</g>
<!-- AppService&#45;&gt;AppModule -->
<g id="edge7" class="edge">
<title>AppService&#45;&gt;AppModule</title>
<path fill="none" stroke="black" d="M792,-122.29C792,-144.21 792,-178 792,-178 792,-178 477.98,-178 477.98,-178"/>
<polygon fill="black" stroke="black" points="477.98,-174.5 467.98,-178 477.98,-181.5 477.98,-174.5"/>
</g>
</g>
</svg>
