<?xml version="1.0" encoding="UTF-8" standalone="no"?>
<!DOCTYPE svg PUBLIC "-//W3C//DTD SVG 1.1//EN"
 "http://www.w3.org/Graphics/SVG/1.1/DTD/svg11.dtd">
<!-- Generated by graphviz version 2.47.0 (20210316.0004)
 -->
<!-- Title: dependencies Pages: 1 -->
<svg width="890pt" height="284pt"
 viewBox="0.00 0.00 890.00 284.00" xmlns="http://www.w3.org/2000/svg" xmlns:xlink="http://www.w3.org/1999/xlink">
<g id="graph0" class="graph" transform="scale(1 1) rotate(0) translate(4 280)">
<title>dependencies</title>
<polygon fill="white" stroke="transparent" points="-4,4 -4,-280 886,-280 886,4 -4,4"/>
<text text-anchor="start" x="420.01" y="-42.4" font-family="Times-12" font-weight="bold" font-size="14.00">Legend</text>
<polygon fill="#ffffb3" stroke="transparent" points="207,-10 207,-30 227,-30 227,-10 207,-10"/>
<text text-anchor="start" x="230.63" y="-15.4" font-family="Times-12" font-size="14.00"> &#160;Declarations</text>
<polygon fill="#8dd3c7" stroke="transparent" points="320,-10 320,-30 340,-30 340,-10 320,-10"/>
<text text-anchor="start" x="343.73" y="-15.4" font-family="Times-12" font-size="14.00"> &#160;Module</text>
<polygon fill="#80b1d3" stroke="transparent" points="406,-10 406,-30 426,-30 426,-10 406,-10"/>
<text text-anchor="start" x="429.78" y="-15.4" font-family="Times-12" font-size="14.00"> &#160;Bootstrap</text>
<polygon fill="#fdb462" stroke="transparent" points="503,-10 503,-30 523,-30 523,-10 503,-10"/>
<text text-anchor="start" x="526.67" y="-15.4" font-family="Times-12" font-size="14.00"> &#160;Providers</text>
<polygon fill="#fb8072" stroke="transparent" points="599,-10 599,-30 619,-30 619,-10 599,-10"/>
<text text-anchor="start" x="622.73" y="-15.4" font-family="Times-12" font-size="14.00"> &#160;Exports</text>
<g id="clust1" class="cluster">
<title>cluster_AuthModule</title>
<polygon fill="none" stroke="black" stroke-dasharray="1,5" points="8,-70 8,-268 874,-268 874,-70 8,-70"/>
</g>
<g id="clust6" class="cluster">
<title>cluster_AuthModule_providers</title>
<polygon fill="none" stroke="black" points="16,-78 16,-130 866,-130 866,-78 16,-78"/>
</g>
<g id="clust4" class="cluster">
<title>cluster_AuthModule_exports</title>
<polygon fill="none" stroke="black" points="391,-208 391,-260 497,-260 497,-208 391,-208"/>
</g>
<!-- AuthService  -->
<g id="node1" class="node">
<title>AuthService </title>
<polygon fill="#fb8072" stroke="black" points="488.98,-252 399.02,-252 399.02,-216 488.98,-216 488.98,-252"/>
<text text-anchor="middle" x="444" y="-229.8" font-family="Times,serif" font-size="14.00">AuthService </text>
</g>
<!-- AuthModule -->
<g id="node2" class="node">
<title>AuthModule</title>
<polygon fill="#8dd3c7" stroke="black" points="487.55,-187 484.55,-191 463.55,-191 460.55,-187 400.45,-187 400.45,-151 487.55,-151 487.55,-187"/>
<text text-anchor="middle" x="444" y="-164.8" font-family="Times,serif" font-size="14.00">AuthModule</text>
</g>
<!-- AuthModule&#45;&gt;AuthService  -->
<g id="edge1" class="edge">
<title>AuthModule&#45;&gt;AuthService </title>
<path fill="none" stroke="black" stroke-dasharray="5,2" d="M444,-187.11C444,-187.11 444,-205.99 444,-205.99"/>
<polygon fill="black" stroke="black" points="440.5,-205.99 444,-215.99 447.5,-205.99 440.5,-205.99"/>
</g>
<!-- AesStrategy -->
<g id="node3" class="node">
<title>AesStrategy</title>
<ellipse fill="#fdb462" stroke="black" cx="800" cy="-104" rx="58.46" ry="18"/>
<text text-anchor="middle" x="800" y="-99.8" font-family="Times,serif" font-size="14.00">AesStrategy</text>
</g>
<!-- AesStrategy&#45;&gt;AuthModule -->
<g id="edge2" class="edge">
<title>AesStrategy&#45;&gt;AuthModule</title>
<path fill="none" stroke="black" d="M800,-122.28C800,-143.32 800,-175 800,-175 800,-175 497.65,-175 497.65,-175"/>
<polygon fill="black" stroke="black" points="497.65,-171.5 487.65,-175 497.65,-178.5 497.65,-171.5"/>
</g>
<!-- AuthService -->
<g id="node4" class="node">
<title>AuthService</title>
<ellipse fill="#fdb462" stroke="black" cx="664" cy="-104" rx="59.11" ry="18"/>
<text text-anchor="middle" x="664" y="-99.8" font-family="Times,serif" font-size="14.00">AuthService</text>
</g>
<!-- AuthService&#45;&gt;AuthModule -->
<g id="edge3" class="edge">
<title>AuthService&#45;&gt;AuthModule</title>
<path fill="none" stroke="black" d="M664,-122.02C664,-139.37 664,-163 664,-163 664,-163 497.73,-163 497.73,-163"/>
<polygon fill="black" stroke="black" points="497.73,-159.5 487.73,-163 497.73,-166.5 497.73,-159.5"/>
</g>
<!-- JwtATStrategy -->
<g id="node5" class="node">
<title>JwtATStrategy</title>
<ellipse fill="#fdb462" stroke="black" cx="517" cy="-104" rx="69.5" ry="18"/>
<text text-anchor="middle" x="517" y="-99.8" font-family="Times,serif" font-size="14.00">JwtATStrategy</text>
</g>
<!-- JwtATStrategy&#45;&gt;AuthModule -->
<g id="edge4" class="edge">
<title>JwtATStrategy&#45;&gt;AuthModule</title>
<path fill="none" stroke="black" d="M467.64,-116.84C467.64,-116.84 467.64,-140.52 467.64,-140.52"/>
<polygon fill="black" stroke="black" points="464.14,-140.52 467.64,-150.52 471.14,-140.52 464.14,-140.52"/>
</g>
<!-- JwtProvider -->
<g id="node6" class="node">
<title>JwtProvider</title>
<ellipse fill="#fdb462" stroke="black" cx="372" cy="-104" rx="57.9" ry="18"/>
<text text-anchor="middle" x="372" y="-99.8" font-family="Times,serif" font-size="14.00">JwtProvider</text>
</g>
<!-- JwtProvider&#45;&gt;AuthModule -->
<g id="edge5" class="edge">
<title>JwtProvider&#45;&gt;AuthModule</title>
<path fill="none" stroke="black" d="M414.96,-116.23C414.96,-116.23 414.96,-140.68 414.96,-140.68"/>
<polygon fill="black" stroke="black" points="411.46,-140.68 414.96,-150.68 418.46,-140.68 411.46,-140.68"/>
</g>
<!-- JwtRTStrategy -->
<g id="node7" class="node">
<title>JwtRTStrategy</title>
<ellipse fill="#fdb462" stroke="black" cx="227" cy="-104" rx="68.94" ry="18"/>
<text text-anchor="middle" x="227" y="-99.8" font-family="Times,serif" font-size="14.00">JwtRTStrategy</text>
</g>
<!-- JwtRTStrategy&#45;&gt;AuthModule -->
<g id="edge6" class="edge">
<title>JwtRTStrategy&#45;&gt;AuthModule</title>
<path fill="none" stroke="black" d="M227,-122.02C227,-139.37 227,-163 227,-163 227,-163 390.35,-163 390.35,-163"/>
<polygon fill="black" stroke="black" points="390.35,-166.5 400.35,-163 390.35,-159.5 390.35,-166.5"/>
</g>
<!-- SaltStrategy -->
<g id="node8" class="node">
<title>SaltStrategy</title>
<ellipse fill="#fdb462" stroke="black" cx="82" cy="-104" rx="58.48" ry="18"/>
<text text-anchor="middle" x="82" y="-99.8" font-family="Times,serif" font-size="14.00">SaltStrategy</text>
</g>
<!-- SaltStrategy&#45;&gt;AuthModule -->
<g id="edge7" class="edge">
<title>SaltStrategy&#45;&gt;AuthModule</title>
<path fill="none" stroke="black" d="M82,-122.28C82,-143.32 82,-175 82,-175 82,-175 390.33,-175 390.33,-175"/>
<polygon fill="black" stroke="black" points="390.33,-178.5 400.33,-175 390.33,-171.5 390.33,-178.5"/>
</g>
</g>
</svg>
